Jump_normalized_Motion_pl04
version=1
nRows=20
nColumns=43
inDegrees=yes
endheader
time		pelvis_tilt		pelvis_list		pelvis_rotation		pelvis_tx		pelvis_ty		pelvis_tz		hip_flexion_r		hip_adduction_r		hip_rotation_r		knee_angle_r		ankle_angle_r		subtalar_angle_r		mtp_angle_r		hip_flexion_l		hip_adduction_l		hip_rotation_l		knee_angle_l		ankle_angle_l		subtalar_angle_l		mtp_angle_l		lumbar_extension		lumbar_bending		lumbar_rotation		neck_flexion		neck_lateral_bending		neck_rotation		arm_flex_r		arm_add_r		arm_rot_r		elbow_flex_r		pro_sup_r		wrist_flex_r		wrist_dev_r		hand_finger_flex_r		arm_flex_l		arm_add_l		arm_rot_l		elbow_flex_l		pro_sup_l		wrist_flex_l		wrist_dev_l		hand_finger_flex_l		
0.002500		-0.536063		-7.725498		90.926256		0.077627		1.744145		1.860949		86.010884		-3.513803		4.506350		-152.199997		24.158243		4.550244		13.459457		83.114726		-7.057050		20.220107		-150.337165		25.042131		30.551915		17.029233		-56.151765		-2.956459		2.286980		39.456038		2.172002		-8.140761		40.435995		-22.108650		-12.014238		76.480920		105.532051		-5.022408		-16.719660		-9.983938		55.159966		-21.104191		8.770383		57.484256		110.741656		-12.148443		-11.023763		0.582001		
0.004672		-0.486209		-7.871196		90.897849		0.077578		1.744591		1.859501		85.861821		-3.521631		4.438483		-152.105493		24.214489		4.509036		13.569832		82.987267		-7.083612		20.215991		-150.282592		25.004954		30.512794		17.086877		-56.007702		-2.892594		2.264902		39.673739		2.101269		-8.015706		41.106333		-22.267127		-11.706380		76.624534		105.411419		-4.955950		-16.780640		-10.178511		55.639813		-21.132035		8.755410		57.461535		110.926300		-12.211377		-11.110724		0.704267		
0.006843		-0.454266		-8.033713		90.872960		0.077539		1.744956		1.858016		85.748861		-3.528779		4.426215		-152.042501		24.205900		4.504482		13.593416		82.894366		-7.081067		20.213272		-150.226423		24.987818		30.502738		17.100401		-55.829017		-2.870733		2.279002		39.647122		2.113733		-7.990547		41.641473		-22.324851		-11.653115		76.878105		105.379170		-4.949994		-16.841657		-10.227554		56.039568		-21.090766		8.726959		57.591478		110.968289		-12.237600		-11.153443		0.728546		
0.009015		-0.357749		-8.192719		90.854962		0.077525		1.745431		1.856541		85.598592		-3.497352		4.315362		-151.924759		24.201922		4.513673		13.659089		82.784535		-7.115139		20.255750		-150.163692		24.989464		30.431863		17.149757		-55.661356		-2.795183		2.316790		39.783971		2.120707		-7.921718		42.298795		-22.532741		-11.353514		77.016552		105.359597		-4.888261		-16.837865		-10.312987		56.567759		-21.113815		8.805122		57.558927		111.115684		-12.249131		-11.136565		0.804036		
0.011187		-0.283101		-8.356886		90.836124		0.077500		1.745871		1.855018		85.461210		-3.478303		4.240213		-151.824335		24.193041		4.521046		13.705021		82.679833		-7.136290		20.279239		-150.105007		24.984637		30.381248		17.184548		-55.484720		-2.738529		2.351604		39.848132		2.135066		-7.874414		42.915223		-22.683045		-11.156169		77.202669		105.343094		-4.852031		-16.854144		-10.375080		57.053664		-21.109435		8.848739		57.592812		111.218576		-12.263959		-11.134476		0.854877		
0.013359		-0.191890		-8.505206		90.818960		0.077466		1.746326		1.853453		85.291185		-3.447618		4.148223		-151.721426		24.200430		4.521122		13.802245		82.563922		-7.154140		20.302664		-150.053260		24.966364		30.242720		17.260359		-55.314362		-2.670355		2.411576		39.828739		2.140092		-7.796018		43.534729		-22.880407		-10.908674		77.391318		105.303494		-4.859217		-16.840923		-10.491060		57.532035		-21.128243		8.954460		57.663424		111.394990		-12.326154		-11.127180		0.945626		
0.015530		-0.040167		-8.638904		90.805062		0.077454		1.746902		1.851877		85.063891		-3.376786		3.963361		-151.570977		24.226836		4.524255		13.991662		82.426722		-7.204760		20.345927		-149.993820		24.940241		29.972852		17.408289		-55.159759		-2.553552		2.496450		39.911156		2.128308		-7.655250		44.263401		-23.215544		-10.412261		77.477324		105.236337		-4.863923		-16.751540		-10.703251		58.109045		-21.213271		9.175312		57.609935		111.724437		-12.438523		-11.068276		1.122973		
0.017702		0.023458		-8.832998		90.778989		0.077447		1.747438		1.850247		84.938847		-3.350094		3.893379		-151.455393		24.190638		4.553244		14.050698		82.336343		-7.249570		20.305641		-149.907462		24.901045		29.895511		17.455479		-54.959568		-2.515876		2.505134		40.064881		2.171243		-7.655415		44.910026		-23.256829		-10.269579		77.645689		105.213074		-4.865118		-16.752633		-10.758913		58.619012		-21.158844		9.146798		57.585400		111.785949		-12.507782		-11.020632		1.168738		
0.019874		0.128583		-9.019954		90.748950		0.077397		1.747944		1.848606		84.813003		-3.315998		3.800977		-151.334821		24.177103		4.594651		14.134820		82.248171		-7.284892		20.322232		-149.851911		24.851071		29.730073		17.520203		-54.758311		-2.446581		2.580737		40.203814		2.204288		-7.632500		45.597875		-23.442662		-10.016139		77.770137		105.214886		-4.829577		-16.728414		-10.799932		59.138500		-21.138862		9.211310		57.590946		111.885730		-12.567216		-10.975089		1.243709		
0.022045		0.262724		-9.174454		90.732809		0.077338		1.748466		1.846919		84.620233		-3.259580		3.673311		-151.210614		24.198271		4.653732		14.398006		82.150172		-7.305210		20.321606		-149.807718		24.731201		29.270745		17.726039		-54.574312		-2.339758		2.675801		40.163009		2.186015		-7.533783		46.280140		-23.726494		-9.632846		77.924802		105.146098		-4.867499		-16.661964		-10.923038		59.625841		-21.196944		9.417012		57.671455		112.085823		-12.801708		-10.903713		1.462755		
0.024217		0.345204		-9.372193		90.704098		0.077298		1.749048		1.845204		84.484204		-3.231826		3.592147		-151.081219		24.172277		4.699015		14.503659		82.056858		-7.341204		20.286196		-149.717903		24.665924		29.110928		17.811029		-54.364257		-2.282518		2.720854		40.286575		2.215093		-7.514311		46.942823		-23.815700		-9.448861		78.071194		105.124626		-4.861814		-16.649040		-10.955219		60.135172		-21.161589		9.445722		57.671768		112.136767		-12.909772		-10.844588		1.546499		
0.026389		0.395569		-9.572780		90.674077		0.077229		1.749584		1.843443		84.367202		-3.226535		3.560317		-150.975225		24.143615		4.722218		14.532025		81.958890		-7.349763		20.262316		-149.631443		24.628601		29.070577		17.834226		-54.148258		-2.247763		2.759369		40.315544		2.251784		-7.514738		47.538116		-23.851072		-9.397250		78.288706		105.119246		-4.855113		-16.683007		-10.958344		60.582413		-21.096031		9.423897		57.758398		112.140263		-12.951928		-10.836288		1.565395		
0.028561		0.521930		-9.757462		90.649494		0.077152		1.750184		1.841676		84.191252		-3.177162		3.437290		-150.833959		24.147984		4.778731		14.650540		81.868113		-7.371995		20.294922		-149.552259		24.511783		28.847195		17.929857		-53.940983		-2.148887		2.860567		40.351403		2.235526		-7.452006		48.219984		-24.065995		-9.115172		78.429762		105.136114		-4.787726		-16.661550		-10.920107		61.073874		-21.101372		9.565581		57.802923		112.150859		-13.070830		-10.761848		1.641619		
0.030732		0.689949		-9.942017		90.622981		0.077080		1.750879		1.839900		83.983881		-3.102052		3.255776		-150.657113		24.161592		4.858165		14.832466		81.778332		-7.418442		20.335934		-149.463194		24.347263		28.522679		18.079838		-53.735435		-2.016861		2.985623		40.494502		2.196168		-7.358480		48.990175		-24.351343		-8.685045		78.474160		105.162494		-4.688335		-16.589195		-10.858371		61.630729		-21.136005		9.784525		57.748536		112.152161		-13.253132		-10.618414		1.755830		
0.032904		0.757097		-10.148893		90.584569		0.076984		1.751538		1.838063		83.840547		-3.088273		3.199574		-150.517002		24.137461		4.888666		14.902217		81.667335		-7.438795		20.302528		-149.359084		24.274913		28.433747		18.143434		-53.514679		-1.965396		3.036675		40.626315		2.216083		-7.335559		49.656505		-24.399739		-8.555615		78.601098		105.163771		-4.668992		-16.581441		-10.835667		62.123962		-21.076128		9.807372		57.746815		112.118556		-13.352539		-10.549199		1.788485		
0.035076		0.806299		-10.354871		90.548473		0.076839		1.752133		1.836158		83.695499		-3.089619		3.180673		-150.397676		24.116357		4.902445		14.923449		81.549657		-7.424145		20.278895		-149.261001		24.228462		28.401231		18.162650		-53.286996		-1.924220		3.091644		40.568821		2.240438		-7.321922		50.215383		-24.440465		-8.523456		78.848017		105.164514		-4.664685		-16.625980		-10.826723		62.527527		-21.016632		9.801370		57.887978		112.102964		-13.396715		-10.553175		1.793669		
0.037247		1.014552		-10.485560		90.517655		0.076705		1.752903		1.834245		83.377769		-2.988074		2.960651		-150.204371		24.171469		4.978741		15.209870		81.409089		-7.480851		20.328213		-149.180286		23.942816		27.942397		18.424375		-53.117912		-1.740257		3.252044		40.621098		2.105498		-7.109946		51.056380		-24.853635		-7.891698		78.851395		105.245672		-4.545499		-16.502748		-10.680313		63.074358		-21.117312		10.168329		57.850283		111.941151		-13.746930		-10.294430		1.912144		
0.039419		1.071234		-10.691670		90.477915		0.076557		1.753517		1.832242		83.218543		-2.997317		2.930786		-150.078638		24.152741		4.995788		15.252899		81.280284		-7.482879		20.296164		-149.082996		23.879884		27.882899		18.465672		-52.882116		-1.690706		3.313073		40.600647		2.123852		-7.085115		51.638600		-24.888338		-7.827335		79.062877		105.249112		-4.544090		-16.529319		-10.664165		63.481789		-21.062499		10.183776		57.956206		111.905514		-13.818924		-10.270240		1.925289		
0.041591		1.174902		-10.904484		90.438484		0.076414		1.754237		1.830256		83.039311		-2.962996		2.844440		-149.908023		24.145274		5.034475		15.335830		81.158292		-7.520376		20.267515		-148.975644		23.772025		27.748393		18.545116		-52.645116		-1.608729		3.391052		40.807930		2.136765		-7.037390		52.380364		-25.003798		-7.568267		79.095341		105.300889		-4.498718		-16.482205		-10.617145		63.991259		-21.002513		10.233398		57.894207		111.826133		-13.925609		-10.145841		1.952482		
0.043763		1.323130		-11.050930		90.411452		0.076218		1.754960		1.828190		82.743040		-2.892714		2.711127		-149.730087		24.180589		5.092079		15.646549		80.993263		-7.548342		20.233424		-148.888031		23.526676		27.292441		18.862880		-52.451835		-1.457494		3.477951		40.803943		2.055205		-6.852681		53.165365		-25.212146		-7.087080		79.132638		105.390016		-4.564430		-16.378236		-10.530372		64.442346		-21.099709		10.497848		57.964278		111.521511		-14.303930		-9.882471		2.084265		
